<svg xmlns="http://www.w3.org/2000/svg" width="24" height="24" viewBox="0 0 100 100">
  <defs><linearGradient id="a" x1="0" y1="0" x2="0" y2="1"><stop offset="0" stop-color="#FFB740"/><stop offset="1" stop-color="#FF9402"/></linearGradient></defs><circle cx="50" cy="50" r="38" fill="url(#a)"/>
  <g transform="translate(29,33.2) scale(0.157)" fill="#ffffff"><path d="M136.68 0.549481C136.758 0.227082 137.046 0 137.378 0H237.714C254.047 0 267.288 13.6823 267.288 30.5603V149.206C267.288 166.084 254.047 179.766 237.714 179.766H94.234C93.7688 179.766 93.4263 179.331 93.5357 178.879L136.68 0.549481Z"/><path d="M110.392 34.9425C110.5 34.4908 110.158 34.0565 109.693 34.0565H29.3224C13.1281 34.0565 0 47.7388 0 64.6167V183.262C0 200.14 13.1281 213.823 29.3224 213.823H128.797C129.129 213.823 129.418 213.595 129.495 213.272L133.162 197.984C133.271 197.533 132.928 197.098 132.464 197.098H72.4064C71.9418 197.098 71.5994 196.664 71.7078 196.212L110.392 34.9425Z"/></g>
</svg>
